<svg xmlns="http://www.w3.org/2000/svg" xmlns:xlink="http://www.w3.org/1999/xlink" width="180" height="41" viewBox="0 0 180 41">
  <defs>
    <clipPath id="clip-path">
      <rect id="Rectangle_1" data-name="Rectangle 1" width="180" height="41" fill="none"/>
    </clipPath>
    <clipPath id="clip-path-2">
      <path id="Path_8" data-name="Path 8" d="M21.225,17.41a52.531,52.531,0,0,0,2.018-6.344l.744-2.732c.215-.792.506-1.763,1.411-1.985a1.456,1.456,0,0,1,1.113.182,2.2,2.2,0,0,1,.821,1.159c.7,1.963,1.246,4,1.871,5.991a17.754,17.754,0,0,0,1.675,4.1,5.191,5.191,0,0,0,4.235,2.774,4.529,4.529,0,0,0-.9.088A5.667,5.667,0,0,0,30.819,23.5a18.846,18.846,0,0,0-1.6,3.982l-1.075,3.412a13.933,13.933,0,0,1-1.118,3.221,1.584,1.584,0,0,1-1.538.717c-.9-.132-1.257-1.016-1.476-1.785-.8-2.813-1.423-4.675-2.262-7.475A9.128,9.128,0,0,0,20.6,22.806a.929.929,0,0,0-.7-.262,1.114,1.114,0,0,0-.747.438,8.141,8.141,0,0,0-.669,1.171,1.748,1.748,0,0,1-2.1.965c-.855-.391-1.121-1.576-1.719-2.243a1.356,1.356,0,0,0-.43-.341c-.682-.313-1.345.461-1.721.925-.6.744-1.084,1.738-1.971,2.192-1.135.581-2.086-.625-2.615-1.482-.312-.5-.582-1.036-.921-1.524A4.953,4.953,0,0,0,4.55,20.6a1.937,1.937,0,0,0-.429-.047,1.919,1.919,0,0,0,.427-.047A4.659,4.659,0,0,0,6.8,18.695c.654-.825,1.2-1.732,1.851-2.556A1.805,1.805,0,0,1,10,15.281a1.565,1.565,0,0,1,.937.46,13.719,13.719,0,0,1,1.421,1.7c.383.474.984,1.249,1.672,1.174.8-.087,1.156-1.175,1.512-1.761a1.859,1.859,0,0,1,1.368-1.022,1.778,1.778,0,0,1,1.446.919c.377.566.675,1.585,1.382,1.826a.877.877,0,0,0,.283.049c.609,0,.993-.714,1.2-1.221M13.72,1.237A20.181,20.181,0,0,0,.036,21.418,20.193,20.193,0,0,0,14.071,39.276a20.2,20.2,0,0,0,11.38.121,31.614,31.614,0,0,1,5.938-1.49,11.635,11.635,0,0,1,6.133,1.272,12.2,12.2,0,0,1,2,1.264c.141.107.278.219.413.336V21.807c0-.334,0-.667-.006-1a23.727,23.727,0,0,0-.609-5.535A20.257,20.257,0,0,0,21.665.318c-.581-.053-1.166-.08-1.75-.08a19.807,19.807,0,0,0-6.2,1" transform="translate(0 -0.238)" fill="none"/>
    </clipPath>
    <linearGradient id="linear-gradient" x1="-0.029" y1="0.527" x2="1" y2="0.543" gradientUnits="objectBoundingBox">
      <stop offset="0" stop-color="#114c90"/>
      <stop offset="0.31" stop-color="#0d8adb"/>
      <stop offset="0.599" stop-color="#35c1f1"/>
      <stop offset="1" stop-color="#66eb6e"/>
    </linearGradient>
  </defs>
  <g id="Group_23176" data-name="Group 23176" transform="translate(0)">
    <g id="Group_2" data-name="Group 2" transform="translate(0)">
      <g id="Group_1" data-name="Group 1" clip-path="url(#clip-path)">
        <path id="Path_1" data-name="Path 1" d="M265.8,24.386l11.165,15.831h-8.686l-5.313-7.684A2.723,2.723,0,0,0,258,34.082v6.135h-6.652V0H258V23.053l9.443-10.165h9.3Z" transform="translate(-178.57 -0.001)" fill="#162a44"/>
        <path id="Path_2" data-name="Path 2" d="M349.881.237a4.555,4.555,0,1,1-4.555,4.61,4.552,4.552,0,0,1,4.555-4.61m-3.666,12.818H353.6V40.384h-7.388Z" transform="translate(-245.332 -0.168)" fill="#162a44"/>
        <path id="Path_3" data-name="Path 3" d="M594.721.237a4.555,4.555,0,1,1-4.555,4.61,4.552,4.552,0,0,1,4.555-4.61m-3.666,12.818h7.388V40.384h-7.388Z" transform="translate(-419.275 -0.168)" fill="#162a44"/>
        <path id="Path_4" data-name="Path 4" d="M395.843,24.471h5.5V30.89h-5.5V42.469c0,2.388,1.111,3.166,3.222,3.166a10.721,10.721,0,0,0,2.277-.222v6.11a10.96,10.96,0,0,1-4.166.667c-5.333,0-8.666-3.166-8.666-8.443V30.89h-4.943V24.471h1.388c2.888,0,4.222-1.889,4.222-4.333V16.306h6.665Z" transform="translate(-272.501 -11.584)" fill="#162a44"/>
        <path id="Path_5" data-name="Path 5" d="M511.007,44.323c8.426,0,11.559,4.753,11.559,10.1V67.494c0,1.4,0,4.213,0,4.213h-6.579s.048-2.161.048-3.187a8.881,8.881,0,0,1-7.832,3.943c-5.671,0-9.128-3.835-9.128-7.994,0-4.753,3.511-7.4,7.94-8.048l6.535-.972c1.512-.216,2-.972,2-1.891,0-1.89-1.418-2.8-4.442-2.8l-9.7.078-.041-6.51Zm4.537,16.636V59.77l-6,.918c-1.837.27-3.295,1.3-3.295,3.349a3.118,3.118,0,0,0,3.457,3.079c3.025,0,5.834-1.459,5.834-6.158" transform="translate(-354.557 -31.489)" fill="#162a44"/>
        <path id="Path_6" data-name="Path 6" d="M172.834,71.834V65.387h9.278c1.569,0,2.524-.9,2.543-1.747.048-2.063-2.02-2.432-2.57-2.559l-2.763-.638c-4.7-1.038-7.395-3.212-7.395-7.244,0-4.61,3.911-8.307,9.022-8.663v-.028l.689,0h9.389v6.4h-9.213a2.274,2.274,0,0,0-2.443,1.748,1.8,1.8,0,0,0,.743,1.719,3.229,3.229,0,0,0,1.357.618l3.073.658c4.884,1.007,7.8,3.33,7.8,7.445,0,4.05-2.959,8.41-9.435,8.724v.018H172.834Z" transform="translate(-122.144 -31.618)" fill="#162a44"/>
        <path id="Path_7" data-name="Path 7" d="M462.927,108.785a4.555,4.555,0,1,1-4.554,4.61,4.552,4.552,0,0,1,4.554-4.61" transform="translate(-325.645 -77.285)" fill="#162a44"/>
      </g>
    </g>
    <g id="Group_4" data-name="Group 4" transform="translate(0 0.069)">
      <g id="Group_3" data-name="Group 3" transform="translate(0)" clip-path="url(#clip-path-2)">
        <rect id="Rectangle_2" data-name="Rectangle 2" width="56.81" height="56.792" transform="translate(-20.13 25.369) rotate(-52.284)" fill="url(#linear-gradient)"/>
      </g>
    </g>
  </g>
</svg>
