<svg xmlns="http://www.w3.org/2000/svg" xmlns:xlink="http://www.w3.org/1999/xlink" width="487.699" height="203.629" viewBox="0 0 487.699 203.629">
  <defs>
    <linearGradient id="linear-gradient" x1="1" y1="0.5" x2="0.1" y2="0.5" gradientUnits="objectBoundingBox">
      <stop offset="0" stop-color="#fff"/>
      <stop offset="0.099" stop-color="#fff"/>
      <stop offset="0.298" stop-color="#114c90"/>
      <stop offset="0.441" stop-color="#0d8adb"/>
      <stop offset="0.598" stop-color="#35c1f1"/>
      <stop offset="0.717" stop-color="#66eb6e"/>
      <stop offset="0.889" stop-color="#fff"/>
      <stop offset="1" stop-color="#fff"/>
    </linearGradient>
    <clipPath id="clip-path">
      <path id="Path_37956" data-name="Path 37956" d="M487.7,0H0V203.629H487.7Z" transform="translate(0)" fill="#fff" stroke="#707070" stroke-width="1"/>
    </clipPath>
    <clipPath id="clip-path-2">
      <path id="Path_37955" data-name="Path 37955" d="M151.047,175.723v5.938a3.631,3.631,0,1,1-7.261,0v-5.938a3.631,3.631,0,1,1,7.261,0m-143.786,0v5.938a3.652,3.652,0,0,1-3.63,3.672A3.652,3.652,0,0,1,0,181.662v-5.938a3.652,3.652,0,0,1,3.63-3.673,3.652,3.652,0,0,1,3.63,3.673m125.813-7.4v20.746a3.631,3.631,0,1,1-7.261,0V168.319a3.631,3.631,0,1,1,7.261,0m-107.84,0v20.746a3.631,3.631,0,1,1-7.261,0V168.319a3.631,3.631,0,1,1,7.261,0M115.1,157.946v41.492a3.631,3.631,0,1,1-7.261,0V157.946a3.631,3.631,0,1,1,7.261,0m-71.893,0v41.492a3.631,3.631,0,1,1-7.261,0V157.946a3.631,3.631,0,1,1,7.261,0m53.92-11.056v63.6a3.631,3.631,0,1,1-7.261,0v-63.6a3.631,3.631,0,1,1,7.261,0m-35.947,0v63.6a3.631,3.631,0,1,1-7.261,0v-63.6a3.631,3.631,0,1,1,7.261,0m17.973-15.821v95.247a3.631,3.631,0,1,1-7.261,0V131.069a3.631,3.631,0,1,1,7.261,0M306.972,82.887c-4.816-18.4-9.8-37.419-15.418-51.262-7.087-17.452-12.545-20.057-15.168-20.057-4.129,0-8.4,4.895-12.687,14.549-4.744,10.677-8.966,25.942-13.435,42.1-6.978,25.23-14.886,53.827-27.613,76.343-7.15,12.651-15.021,22.065-24.061,28.782a60.324,60.324,0,0,1-9.741,5.918,60.324,60.324,0,0,1,9.741,5.918c9.04,6.717,16.911,16.131,24.061,28.781,12.727,22.517,20.635,51.113,27.613,76.343,4.469,16.161,8.69,31.426,13.435,42.1,4.29,9.654,8.558,14.549,12.688,14.549,2.623,0,8.081-2.606,15.168-20.057,5.622-13.843,10.6-32.866,15.418-51.262,11.108-42.429,20.7-79.072,41.162-79.072,8.212,0,13.267,8.375,18.618,17.241,4.715,7.811,10.058,16.664,15.767,16.664,6.8,0,12.641-9.009,17.791-16.958,5.646-8.715,10.98-16.947,19.429-16.947,11.129,0,20.287,11.6,29.143,22.814,6.471,8.195,14.523,18.394,20.031,18.394,6.262,0,15.135-13.006,22.965-24.481,8.637-12.658,18.053-26.46,29.714-34.033-11.66-7.573-21.077-21.375-29.714-34.033-7.83-11.475-16.7-24.481-22.965-24.481-5.507,0-13.56,10.2-20.031,18.395-8.857,11.216-18.014,22.814-29.143,22.814-8.449,0-13.783-8.232-19.429-16.946-5.151-7.949-10.988-16.958-17.791-16.958-5.709,0-11.052,8.853-15.767,16.664-5.351,8.866-10.406,17.241-18.618,17.241-20.462,0-30.054-36.643-41.162-79.072M276.387,0c20.843,0,30.544,37.054,41.776,79.958,4.768,18.216,9.7,37.053,15.227,50.715,6.9,17.047,12.15,19.685,14.7,19.717.152-.051,1.139-.456,3.042-2.873a91.96,91.96,0,0,0,5.721-8.777c5.984-9.915,13.432-22.254,25.67-22.254,13.092,0,21.081,12.329,27.5,22.237a79.6,79.6,0,0,0,6.569,9.247c2.153,2.394,3.112,2.422,3.152,2.422,5.523,0,13.586-10.211,20.064-18.415,9.256-11.722,18-22.793,29.11-22.793,12.373,0,21.709,13.684,32.52,29.528,10.8,15.824,22.994,33.7,37.153,34.719.525-.031,1.93-.079,3.525-.142a5.98,5.98,0,1,1,0,11.951c-1.594-.064-3-.111-3.525-.142-14.159,1.023-26.355,18.895-37.153,34.719-10.811,15.845-20.147,29.528-32.52,29.528-11.112,0-19.854-11.071-29.11-22.793-6.478-8.2-14.541-18.415-20.064-18.415-.04,0-1,.027-3.152,2.421a79.622,79.622,0,0,0-6.569,9.248c-6.419,9.906-14.407,22.237-27.5,22.237-12.239,0-19.686-12.34-25.67-22.255a92.012,92.012,0,0,0-5.721-8.777c-1.9-2.416-2.89-2.822-3.042-2.873-2.546.032-7.8,2.67-14.7,19.716-5.527,13.663-10.459,32.5-15.227,50.716-11.232,42.9-20.933,79.957-41.776,79.957-19.258,0-27.208-28.745-37.272-65.137-6.8-24.588-14.507-52.456-26.534-73.735-6.339-11.215-13.172-19.454-20.89-25.188l-.245-.182a31.493,31.493,0,0,0-18.959-6.236v-.039h-3.5a8.758,8.758,0,1,1,0-17.516h3.5v-.018a31.5,31.5,0,0,0,18.959-6.236q.121-.092.245-.182c7.717-5.733,14.55-13.973,20.89-25.188,12.027-21.278,19.734-49.147,26.534-73.734C249.179,28.745,257.129,0,276.387,0Z" transform="translate(0 0)" fill="url(#linear-gradient)"/>
    </clipPath>
    <linearGradient id="linear-gradient-2" x1="1.097" y1="0.5" x2="0.1" y2="0.5" xlink:href="#linear-gradient"/>
  </defs>
  <g id="Mask_Group_18" data-name="Mask Group 18" transform="translate(0)" clip-path="url(#clip-path)">
    <g id="Group_23216" data-name="Group 23216" transform="translate(-74.42 24.366)">
      <g id="Group_23215" data-name="Group 23215" transform="translate(0 0)" clip-path="url(#clip-path-2)">
        <rect id="Rectangle_6397" data-name="Rectangle 6397" width="548.332" height="358.528" transform="translate(0 0)" fill="url(#linear-gradient-2)"/>
      </g>
    </g>
  </g>
</svg>
