<svg xmlns="http://www.w3.org/2000/svg" xmlns:xlink="http://www.w3.org/1999/xlink" width="100" height="100" viewBox="0 0 100 100">
  <defs>
    <linearGradient id="linear-gradient" x1="0.5" x2="0.5" y2="1" gradientUnits="objectBoundingBox">
      <stop offset="0" stop-color="#114c90"/>
      <stop offset="0.31" stop-color="#0d8adb"/>
      <stop offset="0.599" stop-color="#35c1f1"/>
      <stop offset="1" stop-color="#66eb6e"/>
    </linearGradient>
  </defs>
  <g id="work-3" transform="translate(-835 -8254)">
    <rect id="Rectangle_17828" data-name="Rectangle 17828" width="100" height="100" transform="translate(835 8254)" fill="none"/>
    <g id="clues" transform="translate(847.995 8267.001)">
      <path id="Path_49425" data-name="Path 49425" d="M90.437,62.533H85.606a5.655,5.655,0,1,0-9.977-.021.038.038,0,0,1,.006.021H70.808a3.229,3.229,0,0,0-.428.029,5.593,5.593,0,0,0-2.451-2.591,5.656,5.656,0,0,0-6.794,1.109.039.039,0,0,1-.018.013l-1.9-5.591,5.6-1.9a2.12,2.12,0,0,0,1.4-1.57,2.158,2.158,0,0,0-.642-2.045,3.509,3.509,0,0,1,1.517-5.948A3.508,3.508,0,0,1,71.44,48a2.147,2.147,0,0,0,2.807,2.39l4.576-1.555a3.226,3.226,0,0,0,2.016-4.092L74.525,26.161a3.226,3.226,0,0,0-4.092-2.016l-16.186,5.5a1.074,1.074,0,0,0,.691,2.033l16.186-5.5a1.078,1.078,0,0,1,1.368.674l6.315,18.585a1.078,1.078,0,0,1-.674,1.368L73.558,48.36a5.655,5.655,0,1,0-10.933.89,10.834,10.834,0,0,0,1.493,2.319l-5.591,1.9-.41-1.205a1.074,1.074,0,1,0-2.033.691l.41,1.205-5.6,1.9a2.12,2.12,0,0,0-1.4,1.57,2.158,2.158,0,0,0,.642,2.045,3.509,3.509,0,0,1-1.517,5.948,3.508,3.508,0,0,1-4.349-3.969,2.147,2.147,0,0,0-2.807-2.39l-5.6,1.9L29.2,41.562a1.08,1.08,0,0,1,.674-1.368l19.606-6.662,1.9,5.6a5.655,5.655,0,1,0,3.19,9.453.039.039,0,0,1,.018-.013l.2.584a1.074,1.074,0,1,0,2.033-.691l-.2-.589a2.12,2.12,0,0,0-1.57-1.4,2.159,2.159,0,0,0-2.046.642,3.509,3.509,0,0,1-5.948-1.517,3.508,3.508,0,0,1,3.969-4.349,2.147,2.147,0,0,0,2.39-2.807l-2.247-6.614a1.074,1.074,0,0,0-1.362-.671L29.186,38.161a3.226,3.226,0,0,0-2.016,4.092L41.186,83.5a3.22,3.22,0,0,0,4.092,2.016L63.863,79.2a3.226,3.226,0,0,0,2.016-4.092l-1.554-4.575c2,.376,3.074-.179,3.257-.426v.484a2.12,2.12,0,0,0,1.036,1.833,2.159,2.159,0,0,0,2.143.05,3.508,3.508,0,0,1,5.144,3.35,3.508,3.508,0,0,1-5.157,2.841,2.147,2.147,0,0,0-3.166,1.889v4.833a3.229,3.229,0,0,0,3.226,3.226H90.437a3.229,3.229,0,0,0,3.226-3.226v-7.46a1.074,1.074,0,1,0-2.147,0v7.46a1.08,1.08,0,0,1-1.078,1.078H70.808a1.08,1.08,0,0,1-1.078-1.078V80.556a5.655,5.655,0,1,0,.021-9.977c-.006,0-.021-4.821-.021-4.821a1.08,1.08,0,0,1,1.078-1.078h4.832a2.12,2.12,0,0,0,1.833-1.036,2.158,2.158,0,0,0,.05-2.143,3.509,3.509,0,0,1,3.35-5.144,3.508,3.508,0,0,1,2.841,5.157A2.147,2.147,0,0,0,85.6,64.681h4.833a1.08,1.08,0,0,1,1.078,1.078v7.874a1.074,1.074,0,1,0,2.147,0V65.759a3.23,3.23,0,0,0-3.226-3.226ZM66.581,68.2a3.512,3.512,0,0,1-1.9.213,2.147,2.147,0,0,0-2.389,2.807L63.847,75.8a1.078,1.078,0,0,1-.674,1.368L44.587,83.482a1.078,1.078,0,0,1-1.368-.674L36.557,63.2l5.6-1.9a5.655,5.655,0,1,0,9.453-3.19s5.578-1.918,5.578-1.918l1.9,5.6a2.12,2.12,0,0,0,1.57,1.4,2.159,2.159,0,0,0,2.045-.642,3.509,3.509,0,0,1,5.766.993,3.213,3.213,0,0,0-.885,2.216v1.819a3.421,3.421,0,0,1-1,.624Z" transform="translate(-23.127 -20.541)" fill="#114c90"/>
      <path id="Path_49426" data-name="Path 49426" d="M15.478,395.122a1.074,1.074,0,0,0-2.033.691,4.415,4.415,0,0,1,.156.59,4.356,4.356,0,1,1-5.682-3.313,1.074,1.074,0,0,0,.671-1.362l-1.827-5.376a1.074,1.074,0,1,0-2.033.691l1.51,4.442a6.512,6.512,0,0,0-2.957,8.146,6.527,6.527,0,0,0,6.052,4.087A6.5,6.5,0,0,0,15.71,396a6.643,6.643,0,0,0-.232-.878Z" transform="translate(-2.405 -330.416)" fill="url(#linear-gradient)"/>
      <path id="Path_49427" data-name="Path 49427" d="M427.884,12.232a6.512,6.512,0,0,0,2.957-8.146,6.5,6.5,0,0,0-12.2,4.509,1.074,1.074,0,0,0,2.033-.691,4.415,4.415,0,0,1-.156-.59,4.356,4.356,0,1,1,5.682,3.313,1.074,1.074,0,0,0-.671,1.362l1.827,5.376a1.074,1.074,0,1,0,2.033-.691Z" transform="translate(-358.407 0)" fill="url(#linear-gradient)"/>
      <circle id="Ellipse_2131" data-name="Ellipse 2131" cx="1.074" cy="1.074" r="1.074" transform="translate(71.158 22.6)" fill="url(#linear-gradient)"/>
      <circle id="Ellipse_2132" data-name="Ellipse 2132" cx="1.074" cy="1.074" r="1.074" transform="translate(0.005 48.552)" fill="url(#linear-gradient)"/>
    </g>
  </g>
</svg>
