<svg xmlns="http://www.w3.org/2000/svg" xmlns:xlink="http://www.w3.org/1999/xlink" width="100" height="100" viewBox="0 0 100 100">
  <defs>
    <linearGradient id="linear-gradient" y1="0.5" x2="1.209" y2="0.5" gradientUnits="objectBoundingBox">
      <stop offset="0" stop-color="#114c90"/>
      <stop offset="0.31" stop-color="#0d8adb"/>
      <stop offset="0.599" stop-color="#35c1f1"/>
      <stop offset="1" stop-color="#66eb6e"/>
    </linearGradient>
  </defs>
  <g id="work-1" transform="translate(-182 -8267)">
    <rect id="Rectangle_17825" data-name="Rectangle 17825" width="100" height="100" transform="translate(182 8267)" fill="none"/>
    <g id="profit" transform="translate(198.066 8281.171)">
      <path id="Path_49418" data-name="Path 49418" d="M102.611,49.455a4.427,4.427,0,1,0,4.427,4.427A4.432,4.432,0,0,0,102.611,49.455Zm0,6.76a2.333,2.333,0,1,1,2.333-2.333A2.336,2.336,0,0,1,102.611,56.215Z" transform="translate(-86.213 -42.55)" fill="url(#linear-gradient)"/>
      <path id="Path_49419" data-name="Path 49419" d="M82.97,191.809v-4.048a1.047,1.047,0,0,0-1.047-1.047H71.257a1.047,1.047,0,0,0-1.047,1.047v4.048a1.047,1.047,0,0,0,1.047,1.047H81.923A1.047,1.047,0,0,0,82.97,191.809Zm-2.094-1.047H72.3v-1.953h8.572v1.953Z" transform="translate(-62.145 -160.646)" fill="url(#linear-gradient)"/>
      <path id="Path_49420" data-name="Path 49420" d="M77.408,8.692H70.761a3.072,3.072,0,0,0-2.69,1.593h-27.9V9.621A1.047,1.047,0,0,0,39.341,8.6l-2.552-.537-.014-.034L38.2,5.841a1.047,1.047,0,0,0-.137-1.312l-2.42-2.42a1.047,1.047,0,0,0-1.313-.137L32.147,3.4l-.033-.014L31.576.831A1.047,1.047,0,0,0,30.552,0H27.13A1.047,1.047,0,0,0,26.1.831l-.537,2.552-.033.014L23.35,1.972a1.047,1.047,0,0,0-1.313.137l-2.42,2.42a1.047,1.047,0,0,0-.137,1.313l1.425,2.184-.014.033L18.34,8.6a1.047,1.047,0,0,0-.831,1.025v.664h-.028a5.044,5.044,0,0,0-5.038,5.038V47.895a5.044,5.044,0,0,0,5.038,5.038h3.967a7.512,7.512,0,0,0,7.392,6.419,7.422,7.422,0,0,0,3.048-.653L29.52,67.965c-.94,3.679,4.921,4.929,5.825,1.4l4.2-16.428h3.409v15.73a2.819,2.819,0,1,0,5.638,0V52.933H52l4.2,16.428c.9,3.532,6.765,2.284,5.825-1.4L58.181,52.933H74.062A5.044,5.044,0,0,0,79.1,47.895V25.27a1.047,1.047,0,0,0-2.094,0V47.895a2.947,2.947,0,0,1-2.944,2.944H36.232a7.466,7.466,0,0,0-14.784,0H17.481a2.947,2.947,0,0,1-2.944-2.944V17.482h4.779a1.044,1.044,0,0,0,.3.653l2.42,2.42a1.047,1.047,0,0,0,1.312.137l2.184-1.425.034.014.537,2.552a1.047,1.047,0,0,0,1.025.831h3.422a1.047,1.047,0,0,0,1.025-.831l.537-2.552.034-.014,2.184,1.425a1.047,1.047,0,0,0,1.313-.137l2.42-2.42a1.044,1.044,0,0,0,.3-.653H67.316l-9.761,9.761-5.014-5.012a2.033,2.033,0,0,0-2.859,0l-3.255,3.255a1.047,1.047,0,0,0,1.481,1.481l3.2-3.2,5.015,5.014a2.034,2.034,0,0,0,2.857,0l14.25-14.25a1.047,1.047,0,0,0-.741-1.788H70.761a.977.977,0,0,1,0-1.953h6.647a.949.949,0,0,1,.949.947V18.38a.977.977,0,1,1-1.954,0V16.649a1.047,1.047,0,0,0-1.787-.741L57.555,32.967,52.54,27.952a2.025,2.025,0,0,0-2.857,0l-8.594,8.6a.977.977,0,0,1-1.38-1.382l4.71-4.71a1.047,1.047,0,1,0-1.481-1.481l-4.71,4.71a3.071,3.071,0,0,0,4.343,4.343l8.541-8.542L56.126,34.5a2.035,2.035,0,0,0,2.857,0L74.392,19.094a3.071,3.071,0,0,0,6.059-.713V11.734a3.045,3.045,0,0,0-3.043-3.041ZM33.316,68.842c-.232.908-2.031.673-1.767-.359l3.02-11.817a7.435,7.435,0,0,0,1.663-3.734h1.15Zm13.18-.179a.725.725,0,0,1-1.45,0V52.933H46.5Zm13.5-.18c.263,1.03-1.535,1.266-1.767.359L54.161,52.933H56.02ZM27.628,46.651a5.435,5.435,0,0,1,1.212-.137,5.378,5.378,0,0,1,5.372,5.37v0a5.372,5.372,0,1,1-6.585-5.236ZM14.537,15.323a2.947,2.947,0,0,1,2.944-2.944h.028v.664a1.047,1.047,0,0,0,.831,1.025l2.552.537.014.033-.489.75h-5.88Zm20.226,3.15L32.807,17.2a2.195,2.195,0,0,0-2.624,1.088L29.7,20.569H27.979L27.5,18.284A2.195,2.195,0,0,0,24.874,17.2l-1.956,1.276L21.7,17.255,22.975,15.3a2.195,2.195,0,0,0-1.087-2.624L19.6,12.193V10.47l2.285-.481a2.195,2.195,0,0,0,1.087-2.624L21.7,5.409l1.218-1.218,1.956,1.276A2.195,2.195,0,0,0,27.5,4.379l.481-2.285H29.7l.481,2.285a2.195,2.195,0,0,0,2.624,1.087l1.956-1.276,1.218,1.218L34.706,7.365a2.195,2.195,0,0,0,1.088,2.624l2.285.481v1.723l-2.285.481A2.195,2.195,0,0,0,34.706,15.3l1.276,1.956ZM70.048,14.75l-.638.638H37.265l-.489-.75.014-.034,2.552-.537a1.047,1.047,0,0,0,.831-1.025v-.664H67.753A3.1,3.1,0,0,0,70.048,14.75Z" transform="translate(-12.443 0)" fill="#114c90"/>
      <path id="Path_49421" data-name="Path 49421" d="M307.972,314.018H288.127a1.047,1.047,0,0,0,0,2.094h19.845a1.047,1.047,0,0,0,0-2.094Z" transform="translate(-248.737 -270.177)" fill="url(#linear-gradient)"/>
      <path id="Path_49422" data-name="Path 49422" d="M357.764,281.113H346a1.047,1.047,0,1,0,0,2.094h11.765a1.047,1.047,0,1,0,0-2.094Z" transform="translate(-298.529 -241.866)" fill="url(#linear-gradient)"/>
      <path id="Path_49423" data-name="Path 49423" d="M71.257,244.189a1.047,1.047,0,1,0,0,2.094h7.286a1.047,1.047,0,1,0,0-2.094Z" transform="translate(-62.145 -210.097)" fill="url(#linear-gradient)"/>
      <path id="Path_49424" data-name="Path 49424" d="M123.442,358.944a1.047,1.047,0,0,0,1.047-1.047v-2.824a1.047,1.047,0,0,0-2.094,0V357.9A1.047,1.047,0,0,0,123.442,358.944Z" transform="translate(-107.044 -304.599)" fill="#114c90"/>
    </g>
  </g>
</svg>
