<svg xmlns="http://www.w3.org/2000/svg" xmlns:xlink="http://www.w3.org/1999/xlink" width="100" height="100" viewBox="0 0 100 100">
  <defs>
    <linearGradient id="linear-gradient" x1="0.5" x2="0.5" y2="1" gradientUnits="objectBoundingBox">
      <stop offset="0" stop-color="#114c90"/>
      <stop offset="0.31" stop-color="#0d8adb"/>
      <stop offset="0.599" stop-color="#35c1f1"/>
      <stop offset="1" stop-color="#66eb6e"/>
    </linearGradient>
  </defs>
  <g id="work-4" transform="translate(-1165 -8257)">
    <rect id="Rectangle_17829" data-name="Rectangle 17829" width="100" height="100" transform="translate(1165 8257)" fill="none"/>
    <g id="startup" transform="translate(1177.677 8270.136)">
      <path id="Path_49428" data-name="Path 49428" d="M288.168,128.721a6.179,6.179,0,1,1,4.368-1.81A6.179,6.179,0,0,1,288.168,128.721Zm0-9.886a3.707,3.707,0,0,0-2.621,6.328,3.8,3.8,0,0,0,5.242,0,3.707,3.707,0,0,0-2.621-6.328Zm0,0" transform="translate(-238.046 -98.391)" fill="url(#linear-gradient)"/>
      <path id="Path_49429" data-name="Path 49429" d="M241.887,202.074l-3.5,3.495a1.236,1.236,0,1,0,1.747,1.747l3.5-3.495a1.236,1.236,0,0,0-1.747-1.747Zm0,0" transform="translate(-200.863 -170.569)" fill="url(#linear-gradient)"/>
      <path id="Path_49430" data-name="Path 49430" d="M210.913,247.324l-.874.874a1.236,1.236,0,1,0,1.746,1.747l.874-.874a1.236,1.236,0,0,0-1.747-1.747Zm0,0" transform="translate(-176.88 -208.83)" fill="url(#linear-gradient)"/>
      <path id="Path_49431" data-name="Path 49431" d="M133.572,2.411,133.5,1.34A1.236,1.236,0,0,0,132.357.2L131.286.12a40.707,40.707,0,0,0-35.11,15.374l-5.115,6.472a16,16,0,0,0-19.969,2.182,1.235,1.235,0,0,0,0,1.752l9.415,9.426-.133.169a3.708,3.708,0,0,0,.287,4.921l.043.042-2.62,2.619a6.188,6.188,0,0,0,0,8.739l3.8,3.8a6.191,6.191,0,0,0,8.739,0l2.621-2.622.042.042a3.707,3.707,0,0,0,4.921.29l.169-.135,9.423,9.416a1.237,1.237,0,0,0,1.749,0,16,16,0,0,0,2.181-19.971l6.476-5.112A40.72,40.72,0,0,0,133.572,2.411ZM73.754,25.063a13.523,13.523,0,0,1,15.771-1.148L82.051,33.37ZM88.869,53.856a3.714,3.714,0,0,1-5.244,0l-3.8-3.794a3.715,3.715,0,0,1,0-5.245L82.452,42.2l9.038,9.037Zm22.914-2.611a13.506,13.506,0,0,1-3.155,8.692l-8.306-8.3,9.453-7.472A13.4,13.4,0,0,1,111.783,51.245Zm4.883-15.673-20,15.806a1.235,1.235,0,0,1-1.638-.095L82.409,38.665a1.235,1.235,0,0,1-.1-1.643l15.806-20a38.3,38.3,0,0,1,10.693-9.292l17.157,17.145A38.315,38.315,0,0,1,116.666,35.572Zm10.527-12.964L111.078,6.5a38.236,38.236,0,0,1,17.078-4.031c.975,0,1.956.037,2.936.113l.016.016A38.269,38.269,0,0,1,127.193,22.608Zm0,0" transform="translate(-59.417 0)" fill="#114c90"/>
      <path id="Path_49432" data-name="Path 49432" d="M1.691,364.423A1.236,1.236,0,0,1,.48,362.94c.285-1.388,2.872-13.646,5.943-16.716a8.651,8.651,0,0,1,12.234,12.234c-3.068,3.07-15.323,5.656-16.714,5.942A1.347,1.347,0,0,1,1.691,364.423Zm10.847-18.262a6.135,6.135,0,0,0-4.368,1.809c-1.694,1.694-3.707,8.593-4.863,13.6,5.007-1.149,11.906-3.167,13.6-4.86a6.178,6.178,0,0,0-4.369-10.548Zm0,0" transform="translate(0 -290.604)" fill="url(#linear-gradient)"/>
      <path id="Path_49433" data-name="Path 49433" d="M173.982,399.485a1.236,1.236,0,0,1-.874-2.109l5.242-5.243a1.236,1.236,0,0,1,1.747,1.747l-5.242,5.243A1.236,1.236,0,0,1,173.982,399.485Zm0,0" transform="translate(-145.677 -331.27)" fill="#114c90"/>
      <path id="Path_49434" data-name="Path 49434" d="M237.982,407.485a1.236,1.236,0,0,1-.874-2.109l5.242-5.243a1.236,1.236,0,0,1,1.747,1.747l-5.242,5.243A1.236,1.236,0,0,1,237.982,407.485Zm0,0" transform="translate(-199.792 -338.034)" fill="#114c90"/>
      <path id="Path_49435" data-name="Path 49435" d="M145.693,451.516a1.236,1.236,0,0,1-.874-2.109l.874-.874a1.236,1.236,0,1,1,1.747,1.747l-.874.874A1.236,1.236,0,0,1,145.693,451.516Zm0,0" transform="translate(-121.758 -378.933)" fill="#114c90"/>
      <path id="Path_49436" data-name="Path 49436" d="M29.982,263.485a1.236,1.236,0,0,1-.874-2.109l5.242-5.243A1.236,1.236,0,0,1,36.1,257.88l-5.242,5.243A1.236,1.236,0,0,1,29.982,263.485Zm0,0" transform="translate(-23.921 -216.278)" fill="#114c90"/>
      <path id="Path_49437" data-name="Path 49437" d="M29.982,199.485a1.236,1.236,0,0,1-.874-2.109l5.242-5.243A1.236,1.236,0,0,1,36.1,193.88l-5.242,5.243A1.236,1.236,0,0,1,29.982,199.485Zm0,0" transform="translate(-23.921 -162.164)" fill="#114c90"/>
      <path id="Path_49438" data-name="Path 49438" d="M1.693,315.516a1.236,1.236,0,0,1-.874-2.109l.874-.874a1.236,1.236,0,1,1,1.747,1.747l-.874.874A1.236,1.236,0,0,1,1.693,315.516Zm0,0" transform="translate(-0.001 -263.94)" fill="#114c90"/>
    </g>
  </g>
</svg>
